<?xml version="1.0" encoding="utf-8"?>
<!-- Generator: Adobe Illustrator 23.0.4, SVG Export Plug-In . SVG Version: 6.00 Build 0)  -->
<svg version="1.1" id="Layer_1" xmlns="http://www.w3.org/2000/svg" xmlns:xlink="http://www.w3.org/1999/xlink" x="0px" y="0px"
	 viewBox="0 0 24 24" style="enable-background:new 0 0 24 24;" xml:space="preserve">
<style type="text/css">
	.st0{fill:#3D98D3;}
</style>
<path class="st0" d="M18,18h-3c-0.6,0-1-0.4-1-1s0.4-1,1-1h3c2.2,0,4-1.8,4-4c0-2.2-1.8-4-4-4h-3c-0.6,0-1-0.4-1-1s0.4-1,1-1h3
	c3.3,0,6,2.7,6,6S21.3,18,18,18z M9,18H6c-3.3,0-6-2.7-6-6s2.7-6,6-6h3c0.6,0,1,0.4,1,1S9.6,8,9,8H6c-2.2,0-4,1.8-4,4
	c0,2.2,1.8,4,4,4h3c0.6,0,1,0.4,1,1S9.6,18,9,18z"/>
<path class="st0" d="M16,13H8c-0.6,0-1-0.4-1-1s0.4-1,1-1h8c0.6,0,1,0.4,1,1S16.6,13,16,13z"/>
</svg>
